<svg version="1.2" xmlns="http://www.w3.org/2000/svg" viewBox="0 0 286 94" width="286" height="94"><defs><linearGradient id="P" gradientUnits="userSpaceOnUse"/><linearGradient id="g1" x2="1" href="#P" gradientTransform="matrix(1.6,.712,-0.768,1.726,15.487,17.701)"><stop stop-color="#fff"/><stop offset=".01" stop-color="#fff"/><stop offset=".98" stop-color="#fd0"/><stop offset=".98" stop-color="#fd0"/></linearGradient><linearGradient id="g2" x2="1" href="#P" gradientTransform="matrix(1.6,.712,-0.768,1.726,15.487,18.144)"><stop/><stop offset=".01"/><stop offset=".98" stop-color="#fd0"/><stop offset=".98" stop-color="#fd0"/></linearGradient></defs><style>tspan{white-space:pre}.a{fill:#0f0f0f}.b{fill:#121212}.c{fill:#141414}.d{fill:#f0f0f0}.e{fill:#ededed}.f{fill:#ebebeb}.g{font-size: 71px;fill:  url(#g1);font-weight: 400;font-family: "Dhurjati", "Dhurjati"}.h{font-size: 71px;fill:  url(#g2);font-weight: 400;font-family: "Dhurjati", "Dhurjati"}</style><path class="a" d="m47 92.5c-18.4 0-35-11.1-42-28.1-7.1-17-3.2-36.6 9.8-49.6 13-13 32.6-16.9 49.6-9.8 17 7 28.1 23.6 28.1 42 0 6-1.2 11.9-3.5 17.4-2.3 5.5-5.6 10.5-9.8 14.8-4.3 4.2-9.3 7.5-14.8 9.8-5.5 2.3-11.4 3.5-17.4 3.5z"/><path fill-rule="evenodd" class="b" d="m47 3c17.8 0 33.8 10.7 40.7 27.2 6.8 16.4 3 35.3-9.6 47.9-12.6 12.6-31.5 16.4-47.9 9.6-16.5-6.9-27.2-22.9-27.2-40.7 0-5.8 1.1-11.5 3.3-16.8 2.3-5.4 5.5-10.2 9.6-14.3 4.1-4.1 8.9-7.3 14.3-9.6 5.3-2.2 11-3.3 16.8-3.3zm0-3c-19 0-36.1 11.5-43.4 29-7.3 17.6-3.3 37.8 10.2 51.2 13.4 13.5 33.6 17.5 51.2 10.2 17.5-7.3 29-24.4 29-43.4 0-6.2-1.2-12.3-3.6-18-2.3-5.7-5.8-10.9-10.2-15.2-4.3-4.4-9.5-7.9-15.2-10.2-5.7-2.4-11.8-3.6-18-3.6z"/><path class="c" d="m47 74.3c-15.1 0-27.3-12.2-27.3-27.3 0-15.1 12.2-27.3 27.3-27.3 15.1 0 27.3 12.2 27.3 27.3 0 15.1-12.2 27.3-27.3 27.3z"/><path class="d" d="m239 92.5c-18.4 0-35-11.1-42-28.1-7.1-17-3.2-36.6 9.8-49.6 13-13 32.6-16.9 49.6-9.8 17 7 28.1 23.6 28.1 42 0 6-1.2 11.9-3.5 17.4-2.3 5.5-5.6 10.5-9.8 14.8-4.3 4.2-9.3 7.5-14.8 9.8-5.5 2.3-11.4 3.5-17.4 3.5z"/><path fill-rule="evenodd" class="e" d="m239 3c17.8 0 33.8 10.7 40.7 27.2 6.8 16.4 3 35.3-9.6 47.9-12.6 12.6-31.5 16.4-47.9 9.6-16.5-6.9-27.2-22.9-27.2-40.7 0-5.8 1.1-11.5 3.3-16.8 2.3-5.4 5.5-10.2 9.6-14.3 4.1-4.1 8.9-7.3 14.3-9.6 5.3-2.2 11-3.3 16.8-3.3zm0-3c-19 0-36.1 11.5-43.4 29-7.3 17.6-3.3 37.8 10.2 51.2 13.4 13.5 33.6 17.5 51.2 10.2 17.5-7.3 29-24.4 29-43.4 0-6.2-1.2-12.3-3.6-18-2.3-5.7-5.8-10.9-10.2-15.2-4.3-4.4-9.5-7.9-15.2-10.2-5.7-2.4-11.8-3.6-18-3.6z"/><path class="f" d="m239 74.3c-15.1 0-27.3-12.2-27.3-27.3 0-15.1 12.2-27.3 27.3-27.3 15.1 0 27.3 12.2 27.3 27.3 0 15.1-12.2 27.3-27.3 27.3z"/><path class="d" d="m143 92.5c-18.4 0-35-11.1-42-28.1-7.1-17-3.2-36.6 9.8-49.6 13-13 32.6-16.9 49.6-9.8 17 7 28.1 23.6 28.1 42 0 6-1.2 11.9-3.5 17.4-2.3 5.5-5.6 10.5-9.8 14.8-4.3 4.2-9.3 7.5-14.8 9.8-5.5 2.3-11.4 3.5-17.4 3.5z"/><path fill-rule="evenodd" class="e" d="m143 3c17.8 0 33.8 10.7 40.7 27.2 6.8 16.4 3 35.3-9.6 47.9-12.6 12.6-31.5 16.4-47.9 9.6-16.5-6.9-27.2-22.9-27.2-40.7 0-5.8 1.1-11.5 3.3-16.8 2.3-5.4 5.5-10.2 9.6-14.3 4.1-4.1 8.9-7.3 14.3-9.6 5.3-2.2 11-3.3 16.8-3.3zm0-3c-19 0-36.1 11.5-43.4 29-7.3 17.6-3.3 37.8 10.2 51.2 13.4 13.5 33.6 17.5 51.2 10.2 17.5-7.3 29-24.4 29-43.4 0-6.2-1.2-12.3-3.6-18-2.3-5.7-5.8-10.9-10.2-15.2-4.3-4.4-9.5-7.9-15.2-10.2-5.7-2.4-11.8-3.6-18-3.6z"/><text style="transform:matrix(.971,.241,-0.241,.971,34.713,28.443)" ><tspan x="0" y="33.4" class="g">V
</tspan></text><text style="transform:matrix(.971,.241,-0.241,.971,226.713,28)" ><tspan x="0" y="33.4" class="h">V
</tspan></text></svg>